#!OML:ASF E:\Steps\Project 1\Capture day 1\Session 2\Subject.ASF
:FULLY-SPECIFIED
:DEGREES
204
root 2.68959 17.4441 18.2489 -149.88 -8.107 171.614
lowerback -17.417 -5.12407 -11.0749
upperback 0.932733 -4.59062 -1.96524
thorax 11.5857 -2.87119 2.76378
lowerneck -2.58037 -1.63329 -1.82926
upperneck 21.6458 -4.9239 4.78847
head 7.19133 -2.77209 1.44075
rclavicle -3.08116e-014 -7.71285e-014
rhumerus -45.272 -22.5474 -70.2227
rradius 33.4155
rwrist -5.23542
rhand -6.36578 -54.96
rfingers 7.12502
rthumb 19.4807 -84.0041
lclavicle -3.08116e-014 -7.71285e-014
lhumerus -27.9152 1.20578 73.1489
lradius 26.5952
lwrist -6.61855
lhand -21.4101 -15.5266
lfingers 7.12502
lthumb 4.97834 14.3949
rfemur -35.3491 2.62524 6.53059
rtibia 15.7354
rfoot -16.5475 -15.7612
rtoes -11.2057
lfemur -46.3031 -19.85 -7.72802
ltibia 61.0361
lfoot -31.461 -0.962956
ltoes -42.769
205
root 2.72421 17.4479 18.2184 -149.797 -7.85013 171.491
lowerback -17.3584 -5.14697 -10.9653
upperback 0.825844 -4.66525 -1.95932
thorax 11.43 -2.89375 2.69909
lowerneck -2.38488 -1.3858 -1.68724
upperneck 21.6297 -4.53207 4.45691
head 7.12637 -2.60834 1.34013
rclavicle 1.37161e-014 1.90833e-014
rhumerus -45.3886 -22.2052 -70.3077
rradius 33.5577
rwrist -5.2433
rhand -6.37064 -55.1602
rfingers 7.12502
rthumb 19.476 -84.2048
lclavicle 1.37161e-014 1.90833e-014
lhumerus -28.2776 1.51421 73.1497
lradius 26.5931
lwrist -6.77422
lhand -21.6381 -15.2781
lfingers 7.12502
lthumb 4.7582 14.6484
rfemur -35.385 2.6795 6.55615
rtibia 15.7459
rfoot -16.4947 -15.7005
rtoes -12.3785
lfemur -46.2237 -19.6635 -7.85269
ltibia 61.0178
lfoot -31.2216 -0.576083
ltoes -43.3741
206
root 2.75899 17.4516 18.1887 -149.845 -7.56166 171.34
lowerback -17.6345 -5.17798 -10.9838
upperback 1.06805 -4.63709 -1.96846
thorax 11.8656 -2.89741 2.67077
lowerneck -2.74923 -3.51315 -1.58948
upperneck 22.1035 -3.82503 3.80842
head 7.31545 -1.03524 1.31749
rclavicle 2.90226e-014 -2.14687e-014
rhumerus -44.9931 -22.0658 -70.6178
rradius 33.5909
rwrist -5.15966
rhand -6.37483 -55.1395
rfingers 7.12502
rthumb 19.472 -84.1845
lclavicle 2.90226e-014 -2.14687e-014
lhumerus -28.1094 1.59425 73.2202
lradius 26.652
lwrist -6.43115
lhand -21.758 -15.2143
lfingers 7.12502
lthumb 4.64241 14.7149
rfemur -35.2213 2.98779 6.4134
rtibia 15.5887
rfoot -16.5411 -15.6269
rtoes -12.3858
lfemur -45.9604 -19.5007 -8.09214
ltibia 60.9324
lfoot -30.9203 0.0423899
ltoes -44.745
207
root 2.79525 17.456 18.1637 -149.97 -7.2272 171.266
lowerback -17.2895 -5.12379 -10.9965
upperback 0.981302 -4.61924 -1.92535
thorax 11.5694 -2.88037 2.76331
lowerneck -2.22847 -3.23975 -1.49527
upperneck 21.4718 -3.45957 3.71159
head 7.00168 -0.889541 1.29597
rclavicle -3.43897e-014 -2.78299e-014
rhumerus -45.1266 -21.6598 -70.6592
rradius 33.5908
rwrist -5.22564
rhand -6.20324 -55.136
rfingers 7.12502
rthumb 19.637 -84.1642
lclavicle -3.43897e-014 -2.78299e-014
lhumerus -28.4439 1.56398 73.3183
lradius 26.7146
lwrist -6.06631
lhand -21.5436 -15.2873
lfingers 7.12502
lthumb 4.84948 14.6372
rfemur -35.0889 3.41215 6.35337
rtibia 15.5565
rfoot -16.6197 -15.5124
rtoes -12.155
lfemur -45.6031 -19.2835 -8.28258
ltibia 60.7918
lfoot -30.6493 0.340113
ltoes -45.2785
208
root 2.83146 17.4598 18.1383 -149.985 -6.94207 171.23
lowerback -17.8537 -5.11951 -10.9277
upperback 1.37291 -4.50557 -1.90522
thorax 12.3292 -2.84975 2.71584
lowerneck -2.47623 -3.17379 -1.53382
upperneck 21.2682 -3.41654 3.71958
head 6.9786 -0.892809 1.30187
rclavicle -5.18828e-014 -6.87795e-014
rhumerus -44.4777 -21.7841 -70.9407
rradius 33.5021
rwrist -5.23066
rhand -6.17744 -54.9116
rfingers 7.12502
rthumb 19.6618 -83.9373
lclavicle -5.18828e-014 -6.87795e-014
lhumerus -27.8581 1.81613 73.382
lradius 26.5436
lwrist -5.89732
lhand -21.6095 -15.1077
lfingers 7.12502
lthumb 4.7858 14.8182
rfemur -35.1158 3.78088 6.35368
rtibia 15.5795
rfoot -16.622 -15.511
rtoes -11.5683
lfemur -45.341 -19.0624 -8.37371
ltibia 60.6018
lfoot -30.5057 0.594924
ltoes -45.4006
209
root 2.86568 17.463 18.1092 -149.935 -6.72299 171.139
lowerback -17.4792 -5.10737 -10.8057
upperback 1.05965 -4.60148 -1.88928
thorax 11.7529 -2.8661 2.6853
lowerneck -2.67459 -3.27456 -1.67493
upperneck 22.0704 -3.44516 3.60225
head 7.27786 -0.881016 1.29222
rclavicle -2.52457e-014 2.26615e-014
rhumerus -44.9894 -21.253 -70.9499
rradius 33.6263
rwrist -5.39111
rhand -6.32376 -54.3748
rfingers 7.12502
rthumb 19.5211 -83.4148
lclavicle -2.52457e-014 2.26615e-014
lhumerus -28.4705 2.02041 73.3585
lradius 26.5364
lwrist -5.61622
lhand -21.6432 -15.038
lfingers 7.12502
lthumb 4.75332 14.8887
rfemur -35.1443 4.00998 6.30613
rtibia 15.5425
rfoot -16.6326 -15.4893
rtoes -11.0663
lfemur -45.1042 -18.9221 -8.49711
ltibia 60.385
lfoot -30.4169 1.19807
ltoes -46.3131
210
root 2.90233 17.4678 18.0784 -149.968 -6.47877 170.965
lowerback -17.3956 -5.05826 -10.7502
upperback 1.00682 -4.56289 -1.99129
thorax 11.6235 -2.8399 2.5623
lowerneck -2.64652 -3.34204 -1.70548
upperneck 22.2465 -3.54431 3.7689
head 7.33727 -0.904242 1.34743
rclavicle 4.23411e-014 2.0276e-014
rhumerus -45.1489 -21.2011 -71.0667
rradius 33.5397
rwrist -5.31698
rhand -6.34649 -53.8938
rfingers 7.12502
rthumb 19.4992 -82.936
lclavicle 4.23411e-014 2.0276e-014
lhumerus -28.6676 2.12792 73.2467
lradius 26.5913
lwrist -5.36448
lhand -21.3602 -15.0811
lfingers 7.12502
lthumb 5.02656 14.8393
rfemur -35.06 4.07983 6.27233
rtibia 15.5809
rfoot -16.7498 -15.3187
rtoes -11.463
lfemur -44.6946 -18.7336 -8.75566
ltibia 60.1095
lfoot -30.3154 1.24325
ltoes -46.1299
211
root 2.9374 17.4709 18.0514 -149.865 -6.28486 170.694
lowerback -17.3707 -5.04011 -10.7789
upperback 0.943104 -4.54371 -2.0802
thorax 11.5269 -2.82956 2.49044
lowerneck -2.42484 -3.33724 -1.68375
upperneck 21.9778 -3.58423 3.94033
head 7.21326 -0.919148 1.39672
rclavicle -1.8487e-014 -4.77083e-014
rhumerus -45.307 -21.2249 -71.1364
rradius 33.4778
rwrist -5.115
rhand -6.24382 -53.9163
rfingers 7.12502
rthumb 19.598 -82.9485
lclavicle -1.8487e-014 -4.77083e-014
lhumerus -28.8382 2.10424 73.2372
lradius 26.7188
lwrist -5.14424
lhand -21.4204 -14.9812
lfingers 7.12502
lthumb 4.96841 14.9406
rfemur -35.1223 3.92575 6.11496
rtibia 15.6638
rfoot -16.814 -15.1311
rtoes -11.8005
lfemur -44.5007 -18.5753 -9.0346
ltibia 59.8935
lfoot -30.1989 1.55462
ltoes -46.9278
212
root 2.97205 17.4747 18.0167 -149.923 -5.91702 170.591
lowerback -17.3208 -4.9868 -10.7082
upperback 0.902581 -4.49769 -2.16985
thorax 11.4305 -2.80055 2.37199
lowerneck -2.32389 -3.23037 -1.57047
upperneck 21.9068 -3.43327 3.8793
head 7.1641 -0.844873 1.36878
rclavicle -2.46493e-014 -3.85642e-014
rhumerus -45.5239 -21.1471 -71.293
rradius 33.4856
rwrist -4.9035
rhand -6.23198 -53.8952
rfingers 7.12502
rthumb 19.6093 -82.9262
lclavicle -2.46493e-014 -3.85642e-014
lhumerus -29.1319 2.11868 73.1165
lradius 26.84
lwrist -4.60292
lhand -21.4966 -15.032
lfingers 7.12502
lthumb 4.89484 14.8915
rfemur -35.0693 4.058 6.11855
rtibia 15.7102
rfoot -16.8723 -14.8812
rtoes -11.4724
lfemur -43.9542 -18.2242 -9.31545
ltibia 59.5072
lfoot -30.1077 2.57338
ltoes -49.6136
